<svg width="16" height="14" fill="none" xmlns="http://www.w3.org/2000/svg"><path fill-rule="evenodd" clip-rule="evenodd" d="M8 8.1A4.32 4.32 0 014.48 10C2.01 10 0 7.76 0 5s2-5 4.48-5C5.91 0 7.18.75 8 1.9A4.32 4.32 0 0111.52 0C13.99 0 16 2.24 16 5s-2 5-4.48 5c-1.43 0-2.7-.75-3.52-1.9z" fill="#FB5F8A"/><mask id="a" maskUnits="userSpaceOnUse" x="0" y="0" width="16" height="10"><path fill-rule="evenodd" clip-rule="evenodd" d="M8 8.1A4.32 4.32 0 014.48 10C2.01 10 0 7.76 0 5s2-5 4.48-5C5.91 0 7.18.75 8 1.9A4.32 4.32 0 0111.52 0C13.99 0 16 2.24 16 5s-2 5-4.48 5c-1.43 0-2.7-.75-3.52-1.9z" fill="#fff"/></mask><g mask="url(#a)"><path fill="#FC719F" d="M0 0h16v16H0z"/><path fill="#ED5267" d="M0 0h16v16H0z"/></g><path fill-rule="evenodd" clip-rule="evenodd" d="M8 14c2.76 0 8-5 8-9H0c0 4 5.24 9 8 9z" fill="#FB5F8A"/><mask id="b" maskUnits="userSpaceOnUse" x="0" y="5" width="16" height="9"><path fill-rule="evenodd" clip-rule="evenodd" d="M8 14c2.76 0 8-5 8-9H0c0 4 5.24 9 8 9z" fill="#fff"/></mask><g mask="url(#b)"><path fill="#FC719F" d="M0 0h16v16H0z"/><path fill="#ED5267" d="M0 0h16v16H0z"/></g></svg>