<svg width="20" height="20" fill="none" xmlns="http://www.w3.org/2000/svg"><path fill-rule="evenodd" clip-rule="evenodd" d="M8.59 4.34a5 5 0 017.07 7.07l-4.25 4.25a5 5 0 01-7.07-7.07L8.6 4.34zM10 5.76L5.76 10A3 3 0 0010 14.24L14.24 10A3 3 0 0010 5.76zm-2.12-.71L5.05 7.88l1.41 1.41L9.3 6.46 7.88 5.05zm5.66 5.66l-2.83 2.83 1.41 1.41 2.83-2.83-1.41-1.41zM10.7 7.87a1 1 0 011.41 1.41L9.3 12.14a1 1 0 01-1.41-1.41l2.83-2.85z" fill="#3E4056"/><mask id="a" maskUnits="userSpaceOnUse" x="0" y="0" width="20" height="20"><path fill-rule="evenodd" clip-rule="evenodd" d="M8.59 4.34a5 5 0 017.07 7.07l-4.25 4.25a5 5 0 01-7.07-7.07L8.6 4.34zM10 5.76L5.76 10A3 3 0 0010 14.24L14.24 10A3 3 0 0010 5.76zm-2.12-.71L5.05 7.88l1.41 1.41L9.3 6.46 7.88 5.05zm5.66 5.66l-2.83 2.83 1.41 1.41 2.83-2.83-1.41-1.41zM10.7 7.87a1 1 0 011.41 1.41L9.3 12.14a1 1 0 01-1.41-1.41l2.83-2.85z" fill="#fff"/></mask><g mask="url(#a)"><path fill="#3E4056" d="M2 2h16v16H2z"/></g><path fill-rule="evenodd" clip-rule="evenodd" d="M5.05 7.88a1 1 0 111.41 1.41 1 1 0 11-1.41-1.41zm5.66 5.66a1 1 0 111.41 1.41 1 1 0 11-1.41-1.41zm2.83-2.83a1 1 0 111.41 1.41 1 1 0 11-1.41-1.41zM7.88 5.05a1 1 0 111.41 1.41 1 1 0 11-1.41-1.41z" fill="#3E4056"/><mask id="b" maskUnits="userSpaceOnUse" x="4" y="4" width="12" height="12"><path fill-rule="evenodd" clip-rule="evenodd" d="M5.05 7.88a1 1 0 111.41 1.41 1 1 0 11-1.41-1.41zm5.66 5.66a1 1 0 111.41 1.41 1 1 0 11-1.41-1.41zm2.83-2.83a1 1 0 111.41 1.41 1 1 0 11-1.41-1.41zM7.88 5.05a1 1 0 111.41 1.41 1 1 0 11-1.41-1.41z" fill="#fff"/></mask><g mask="url(#b)"><path fill="#3E4056" d="M2 2h16v16H2z"/></g></svg>