<svg width="16" height="16" fill="none" xmlns="http://www.w3.org/2000/svg"><path opacity=".01" fill="#ECF1F8" d="M0 0h16v16H0z"/><path fill-rule="evenodd" clip-rule="evenodd" d="M15 8c0 .7-.35 1.38-.93 1.81L7.96 14.5c-.73.55-1.73.66-2.57.27A2.34 2.34 0 014 12.68V3.32c0-.9.55-1.7 1.39-2.1a2.53 2.53 0 012.57.28l6.11 4.69c.58.43.92 1.1.93 1.81z" fill="#3E4056"/><mask id="a" maskUnits="userSpaceOnUse" x="4" y="1" width="11" height="14"><path fill-rule="evenodd" clip-rule="evenodd" d="M15 8c0 .7-.35 1.38-.93 1.81L7.96 14.5c-.73.55-1.73.66-2.57.27A2.34 2.34 0 014 12.68V3.32c0-.9.55-1.7 1.39-2.1a2.53 2.53 0 012.57.28l6.11 4.69c.58.43.92 1.1.93 1.81z" fill="#fff"/></mask><g mask="url(#a)"><path fill="#3E4056" d="M0 0h16v16H0z"/></g></svg>