<svg width="50" height="23" fill="none" xmlns="http://www.w3.org/2000/svg"><path fill-rule="evenodd" clip-rule="evenodd" d="M5.07 1.09c1.66 0 2.97.79 3.91 2.36.14.18.22.4.22.64 0 .58-.48 1.06-1.07 1.06-.49 0-.9-.32-1.02-.76a2.7 2.7 0 00-.83-.92c-.32-.2-.73-.3-1.23-.3-.61 0-1.12.17-1.53.52-.4.34-.6.77-.6 1.29 0 .71.52 1.28 1.59 1.72l1.47.6a6.26 6.26 0 012.61 1.75c.55.7.83 1.54.83 2.54 0 1.35-.45 2.46-1.35 3.33a4.65 4.65 0 01-3.38 1.33 4.53 4.53 0 01-3.16-1.13A5.17 5.17 0 010 11.95h.02a1.14 1.14 0 011.12-1.35c.63 0 1.14.5 1.14 1.13v.02c.1.7.27 1.2.5 1.49.46.63 1.12.95 2 .95a2.38 2.38 0 002.4-2.44c0-.29-.04-.55-.12-.79-.07-.23-.2-.45-.37-.65-.16-.2-.38-.38-.65-.56a6.29 6.29 0 00-.95-.5l-1.42-.58C1.67 7.82.66 6.59.66 4.96c0-1.1.42-2.02 1.26-2.76A4.59 4.59 0 015.07 1.1zm7.67 21.38c.54 0 1-.36 1.13-.86l.62-1.47 6.94-13.37H19l-2.64 5.3-2.84-5.3h-2.48l4.16 7.5-3.39 6.3c-.08.12-.15.24-.2.38l-.02.05h.01a1.17 1.17 0 001.13 1.47zM23.8 6.77h2.15v.85c.75-.74 1.59-1.1 2.53-1.1a3.2 3.2 0 012.52 1c.52.58.78 1.51.78 2.81v5.65h-2.15v-5.14c0-.91-.13-1.54-.38-1.89-.25-.35-.7-.53-1.35-.53-.71 0-1.22.24-1.52.7-.29.46-.43 1.27-.43 2.42v4.44H23.8V6.77zm13.8 1.98v7.23h-2.14V8.75h-.91V6.77h.91V3.39h2.14v3.38h1.67v1.98H37.6zM42.03 0h2.14v7.53a3.7 3.7 0 012.52-1.02c1.05 0 1.88.34 2.51 1.01.53.59.8 1.53.8 2.81v5.65h-2.14v-5.45c0-.74-.13-1.27-.4-1.6-.26-.33-.68-.5-1.27-.5-.74 0-1.27.23-1.58.7-.3.46-.44 1.26-.44 2.4v4.45h-2.14V0z" fill="#3E4056"/></svg>