<svg width="14" height="16" fill="none" xmlns="http://www.w3.org/2000/svg"><mask id="a" fill="#fff"><path fill-rule="evenodd" clip-rule="evenodd" d="M8.65 14.4c0 .88-.74 1.6-1.65 1.6-.9 0-1.65-.72-1.65-1.6h3.3zM7 3.51l-.79.18A3.23 3.23 0 003.65 6.8V11.6h8.31l.4-.4.4.4L14 12.8v.8H0v-.8l1.24-1.2.4-.4V6.8a5.23 5.23 0 014.12-5.06V1.2C5.76.54 6.32 0 7 0c.68 0 1.24.54 1.24 1.2v.54a5.23 5.23 0 014.11 5.06v4.4h-2V6.8A3.23 3.23 0 007.8 3.7L7 3.5z"/></mask><path d="M8.65 14.4h2v-2h-2v2zm-3.3 0v-2h-2v2h2zm.86-10.7l.45 1.94-.45-1.95zM7 3.5l.45-1.95-.45-.1-.45.1L7 3.51zM3.65 11.6h-2v2h2v-2zm8.31 0v2h.85l.59-.6-1.44-1.4zm.8 0l-1.39 1.43 1.4-1.43zM14 12.8h2v-.85l-.6-.58L14 12.8zm0 .8v2h2v-2h-2zm-14 0h-2v2h2v-2zm0-.8l-1.4-1.43-.6.58v.85h2zm1.24-1.2l-1.4-1.43 1.4 1.43zm.4-.4l1.4 1.43.6-.58v-.85h-2zm4.12-9.46l.45 1.95 1.55-.35v-1.6h-2zm2.48 0h-2v1.6l1.55.35.45-1.95zm2.11 9.46h-2v2h2v-2zM7.8 3.7l-.45 1.94.45-1.95zM7 18a3.63 3.63 0 003.65-3.6h-4c0-.28.2-.4.35-.4v4zm-3.65-3.6c0 2.04 1.7 3.6 3.65 3.6v-4c.14 0 .35.12.35.4h-4zm3.3-2h-1.3v4h1.3v-4zm.35 0h-.35v4H7v-4zm.35 0H7v4h.35v-4zm1.3 0h-1.3v4h1.3v-4zM6.66 5.64l.79-.18-.9-3.9-.79.18.9 3.9zM5.65 6.8c0-.48.35-1 1.01-1.16l-.9-3.9A5.23 5.23 0 001.65 6.8h4zm0 4.4V6.8h-4v4.4h4zm0 .4v-.4h-4v.4h4zm6.31-2H3.65v4h8.31v-4zm-1.04.2l-.39.4L13.4 13l.39-.4-2.87-2.8zm3.24.37l-.41-.4-2.8 2.86.42.4 2.79-2.86zm1.23 1.2l-1.23-1.2-2.79 2.86 1.24 1.2 2.78-2.86zM16 13.6v-.8h-4v.8h4zm-2.78 2H14v-4h-.78v4zm-1.22 0h1.22v-4H12v4zm-.05 0H12v-4h-.05v4zm-9.9 0h9.9v-4h-9.9v4zm-.05 0h.05v-4H2v4zm-1.22 0H2v-4H.78v4zm-.78 0h.78v-4H0v4zm-2-2.8v.8h4v-.8h-4zm1.84-2.63l-1.23 1.2 2.78 2.86 1.24-1.2-2.79-2.86zm.41-.4l-.4.4 2.78 2.86.41-.4L.25 9.77zm-.6-2.97v4.4h4V6.8h-4zm5.67-7a7.23 7.23 0 00-5.67 7h4A3.23 3.23 0 016.2 3.7l-.9-3.9zM3.76 1.2v.54h4V1.2h-4zM7-2a3.22 3.22 0 00-3.24 3.2h4c0 .5-.4.8-.76.8v-4zm3.24 3.2C10.24-.62 8.74-2 7-2v4a.78.78 0 01-.76-.8h4zm0 .54V1.2h-4v.54h4zm4.11 5.06a7.23 7.23 0 00-5.67-7l-.9 3.9a3.23 3.23 0 012.57 3.1h4zm0 4.4V6.8h-4v4.4h4zm-4 2h2v-4h-2v4zm-2-6.4v4.4h4V6.8h-4zM7.34 5.64c.66.15 1.01.68 1.01 1.16h4a5.23 5.23 0 00-4.11-5.06l-.9 3.9zm-.79-.18l.79.18.9-3.9-.8-.18-.89 3.9z" fill="#3E4056" mask="url(#a)"/></svg>