<svg width="32" height="32" fill="none" xmlns="http://www.w3.org/2000/svg"><g opacity=".98"><path opacity=".01" fill="#EFF3F6" d="M0 0h32v32H0z"/><rect x="10" y="12" width="12" height="10" rx="2" stroke="#3E4056" stroke-width="2"/><path clip-rule="evenodd" d="M12.42 12.47c1.09.4 3.05.16 3.43-.88.38-1.04-.98-2.48-2.06-2.88a2.04 2.04 0 00-2.64 1.17c-.38 1.04.2 2.2 1.27 2.6z" stroke="#3E4056" stroke-width="2"/><path clip-rule="evenodd" d="M19.58 12.47c-1.09.4-3.05.16-3.43-.88-.38-1.04.98-2.48 2.06-2.88 1.08-.4 2.26.13 2.64 1.17.38 1.04-.2 2.2-1.27 2.6z" stroke="#3E4056" stroke-width="2"/><path fill="#3E4056" d="M15 12h2v10h-2z"/><g fill="#fff"><mask id="a"><path d="M8 13c0-1.1.9-2 2-2h12a2 2 0 012 2v3a1 1 0 01-1 1H9a1 1 0 01-1-1v-3z"/></mask><path d="M8 13c0-1.1.9-2 2-2h12a2 2 0 012 2v3a1 1 0 01-1 1H9a1 1 0 01-1-1v-3z" stroke="#3E4056" stroke-width="4" mask="url(#a)"/></g></g></svg>